<mxfile host="app.diagrams.net" agent="Mozilla/5.0 (Macintosh; Intel Mac OS X 10_15_7) AppleWebKit/537.36 (KHTML, like Gecko) Chrome/135.0.0.0 Safari/537.36" version="27.0.1">
  <diagram name="Page-1" id="cWDBNV2v8mS3Kt5XcIzP">
    <mxGraphModel dx="985" dy="865" grid="1" gridSize="10" guides="1" tooltips="1" connect="1" arrows="1" fold="1" page="1" pageScale="1" pageWidth="850" pageHeight="1100" background="light-dark(#FFFFFF,#000000)" math="0" shadow="0">
      <root>
        <mxCell id="0" />
        <mxCell id="1" parent="0" />
        <mxCell id="KHwJY_O5MvQ1fBtN65Wm-1" value="/mnt/hdd-01&lt;div&gt;16TB&lt;/div&gt;" style="sketch=0;pointerEvents=1;shadow=0;dashed=0;html=1;strokeColor=none;fillColor=#505050;labelPosition=center;verticalLabelPosition=bottom;verticalAlign=top;outlineConnect=0;align=center;shape=mxgraph.office.devices.hard_disk;" parent="1" vertex="1">
          <mxGeometry x="90" y="770" width="40" height="54" as="geometry" />
        </mxCell>
        <mxCell id="KHwJY_O5MvQ1fBtN65Wm-2" value="&lt;div&gt;/mnt/hdd-02&lt;/div&gt;&lt;div&gt;16TB&lt;/div&gt;" style="sketch=0;pointerEvents=1;shadow=0;dashed=0;html=1;strokeColor=none;fillColor=#505050;labelPosition=center;verticalLabelPosition=bottom;verticalAlign=top;outlineConnect=0;align=center;shape=mxgraph.office.devices.hard_disk;" parent="1" vertex="1">
          <mxGeometry x="170" y="770" width="40" height="54" as="geometry" />
        </mxCell>
        <mxCell id="KHwJY_O5MvQ1fBtN65Wm-3" value="/mnt/parity-hdd-01&lt;div&gt;16TB&lt;br&gt;&lt;div&gt;&lt;div&gt;&lt;div&gt;&lt;br&gt;&lt;/div&gt;&lt;/div&gt;&lt;/div&gt;&lt;/div&gt;" style="sketch=0;pointerEvents=1;shadow=0;dashed=0;html=1;strokeColor=none;fillColor=#505050;labelPosition=center;verticalLabelPosition=bottom;verticalAlign=top;outlineConnect=0;align=center;shape=mxgraph.office.devices.hard_disk;" parent="1" vertex="1">
          <mxGeometry x="300" y="770" width="40" height="54" as="geometry" />
        </mxCell>
        <mxCell id="xL38vGqTjKEQi2ETifp--1" value="/mnt/hdd-03&lt;div&gt;&lt;div&gt;8TB&lt;/div&gt;&lt;/div&gt;" style="sketch=0;pointerEvents=1;shadow=0;dashed=0;html=1;strokeColor=none;fillColor=#505050;labelPosition=center;verticalLabelPosition=bottom;verticalAlign=top;outlineConnect=0;align=center;shape=mxgraph.office.devices.hard_disk;" vertex="1" parent="1">
          <mxGeometry x="525" y="770" width="40" height="54" as="geometry" />
        </mxCell>
        <mxCell id="xL38vGqTjKEQi2ETifp--2" value="&lt;div&gt;/mnt/hdd-04&lt;/div&gt;&lt;div&gt;8TB&lt;/div&gt;" style="sketch=0;pointerEvents=1;shadow=0;dashed=0;html=1;strokeColor=none;fillColor=#505050;labelPosition=center;verticalLabelPosition=bottom;verticalAlign=top;outlineConnect=0;align=center;shape=mxgraph.office.devices.hard_disk;" vertex="1" parent="1">
          <mxGeometry x="605" y="770" width="40" height="54" as="geometry" />
        </mxCell>
        <mxCell id="xL38vGqTjKEQi2ETifp--3" value="" style="swimlane;startSize=0;" vertex="1" parent="1">
          <mxGeometry x="62" y="750" width="178" height="120" as="geometry">
            <mxRectangle x="560" y="730" width="50" height="40" as="alternateBounds" />
          </mxGeometry>
        </mxCell>
        <mxCell id="xL38vGqTjKEQi2ETifp--18" value="" style="swimlane;startSize=0;" vertex="1" parent="1">
          <mxGeometry x="260" y="750" width="120" height="120" as="geometry">
            <mxRectangle x="260" y="740" width="50" height="40" as="alternateBounds" />
          </mxGeometry>
        </mxCell>
        <mxCell id="xL38vGqTjKEQi2ETifp--24" value="&lt;div&gt;ZFS Pool&lt;/div&gt;/mnt/pool-zfs" style="text;html=1;align=center;verticalAlign=middle;resizable=0;points=[];autosize=1;strokeColor=none;fillColor=none;" vertex="1" parent="1">
          <mxGeometry x="545" y="883" width="90" height="40" as="geometry" />
        </mxCell>
        <mxCell id="xL38vGqTjKEQi2ETifp--35" style="edgeStyle=orthogonalEdgeStyle;rounded=0;orthogonalLoop=1;jettySize=auto;html=1;entryX=0.5;entryY=1;entryDx=0;entryDy=0;" edge="1" parent="1" source="xL38vGqTjKEQi2ETifp--29" target="xL38vGqTjKEQi2ETifp--18">
          <mxGeometry relative="1" as="geometry" />
        </mxCell>
        <mxCell id="xL38vGqTjKEQi2ETifp--29" value="SnapRAID Parity" style="text;html=1;align=center;verticalAlign=middle;resizable=0;points=[];autosize=1;strokeColor=none;fillColor=none;" vertex="1" parent="1">
          <mxGeometry x="185" y="910" width="110" height="30" as="geometry" />
        </mxCell>
        <mxCell id="xL38vGqTjKEQi2ETifp--34" style="edgeStyle=orthogonalEdgeStyle;rounded=0;orthogonalLoop=1;jettySize=auto;html=1;entryX=0.551;entryY=1;entryDx=0;entryDy=0;entryPerimeter=0;" edge="1" parent="1" source="xL38vGqTjKEQi2ETifp--29" target="xL38vGqTjKEQi2ETifp--3">
          <mxGeometry relative="1" as="geometry" />
        </mxCell>
        <mxCell id="xL38vGqTjKEQi2ETifp--39" value="" style="swimlane;startSize=0;" vertex="1" parent="1">
          <mxGeometry x="500" y="750" width="170" height="120" as="geometry">
            <mxRectangle x="260" y="740" width="50" height="40" as="alternateBounds" />
          </mxGeometry>
        </mxCell>
        <mxCell id="xL38vGqTjKEQi2ETifp--43" value="" style="swimlane;startSize=0;" vertex="1" parent="1">
          <mxGeometry x="300" y="510" width="150" height="60" as="geometry" />
        </mxCell>
        <mxCell id="xL38vGqTjKEQi2ETifp--41" value="" style="sketch=0;pointerEvents=1;shadow=0;dashed=0;html=1;strokeColor=none;fillColor=#434445;aspect=fixed;labelPosition=center;verticalLabelPosition=bottom;verticalAlign=top;align=center;outlineConnect=0;shape=mxgraph.vvd.ssd;" vertex="1" parent="xL38vGqTjKEQi2ETifp--43">
          <mxGeometry x="20" y="12.25" width="50" height="35.5" as="geometry" />
        </mxCell>
        <mxCell id="xL38vGqTjKEQi2ETifp--42" value="" style="sketch=0;pointerEvents=1;shadow=0;dashed=0;html=1;strokeColor=none;fillColor=#434445;aspect=fixed;labelPosition=center;verticalLabelPosition=bottom;verticalAlign=top;align=center;outlineConnect=0;shape=mxgraph.vvd.ssd;" vertex="1" parent="xL38vGqTjKEQi2ETifp--43">
          <mxGeometry x="90" y="12.25" width="50" height="35.5" as="geometry" />
        </mxCell>
        <mxCell id="xL38vGqTjKEQi2ETifp--50" value="" style="swimlane;startSize=0;" vertex="1" parent="1">
          <mxGeometry x="31" y="711" width="675" height="240" as="geometry" />
        </mxCell>
        <mxCell id="xL38vGqTjKEQi2ETifp--8" value="MergerFS Pool&lt;div&gt;/mnt/pool-hdd&lt;/div&gt;" style="text;html=1;align=center;verticalAlign=middle;resizable=0;points=[];autosize=1;rounded=0;shadow=0;glass=0;fillColor=default;" vertex="1" parent="1">
          <mxGeometry x="325" y="690" width="100" height="40" as="geometry" />
        </mxCell>
      </root>
    </mxGraphModel>
  </diagram>
</mxfile>
